<svg width="12" height="12" fill="none" xmlns="http://www.w3.org/2000/svg"><g clip-path="url(#a)"><path d="M10.273 4.12h-2.74v2.746h2.74V4.12Zm-5.48 3.775a1.032 1.032 0 0 1-1.227 1.01 1.025 1.025 0 0 1-.807-.809 1.03 1.03 0 0 1 1.007-1.231h1.028V4.12H3.766a3.762 3.762 0 0 0-3.48 2.33 3.784 3.784 0 0 0 .817 4.115 3.758 3.758 0 0 0 5.795-.572 3.782 3.782 0 0 0 .634-2.098v-1.03H4.793v1.03Zm3.767-5.15h3.082V0H8.56a3.766 3.766 0 0 0-2.662 1.108 3.785 3.785 0 0 0-1.104 2.668v.344h2.739v-.344A1.033 1.033 0 0 1 8.56 2.745Z" fill="currentColor"/></g><defs><clipPath id="a"><path fill="#fff" d="M0 0h12v12H0z"/></clipPath></defs></svg>
