<svg width="17" height="19" viewBox="0 0 17 19" fill="none" xmlns="http://www.w3.org/2000/svg">
<path d="M13.75 13.07C13.085 13.07 12.49 13.3325 12.035 13.7438L5.79625 10.1125C5.84 9.91125 5.875 9.71 5.875 9.5C5.875 9.29 5.84 9.08875 5.79625 8.8875L11.965 5.29125C12.4375 5.72875 13.0588 6 13.75 6C15.2025 6 16.375 4.8275 16.375 3.375C16.375 1.9225 15.2025 0.75 13.75 0.75C12.2975 0.75 11.125 1.9225 11.125 3.375C11.125 3.585 11.16 3.78625 11.2038 3.9875L5.035 7.58375C4.5625 7.14625 3.94125 6.875 3.25 6.875C1.7975 6.875 0.625 8.0475 0.625 9.5C0.625 10.9525 1.7975 12.125 3.25 12.125C3.94125 12.125 4.5625 11.8537 5.035 11.4162L11.265 15.0563C11.2212 15.24 11.195 15.4325 11.195 15.625C11.195 17.0338 12.3413 18.18 13.75 18.18C15.1587 18.18 16.305 17.0338 16.305 15.625C16.305 14.2163 15.1587 13.07 13.75 13.07Z"/>
</svg>
