<svg width="782" height="175" fill="none" xmlns="http://www.w3.org/2000/svg"><path d="M180.497 40.612h17.75v46.15l45.156-46.15h21.868l-40.47 40.47L268.111 142h-22.152l-33.228-48.422-14.484 14.342V142h-17.75V40.612Zm124.331 0h18.886L362.764 142h-19.028l-9.514-26.838h-40.47L284.238 142H265.92l38.908-101.388Zm-6.248 61.06h30.956l-15.194-43.594h-.426l-15.336 43.594Zm73.839-61.06h48.422c11.171 0 19.549 2.414 25.134 7.242 5.585 4.828 8.378 11.55 8.378 20.164 0 4.828-.71 8.851-2.13 12.07-1.42 3.124-3.077 5.68-4.97 7.668-1.893 1.893-3.787 3.266-5.68 4.118-1.799.852-3.124 1.42-3.976 1.704v.284c1.515.19 3.124.663 4.828 1.42 1.799.757 3.455 1.988 4.97 3.692 1.515 1.609 2.745 3.739 3.692 6.39 1.041 2.651 1.562 5.964 1.562 9.94 0 5.964.426 11.407 1.278 16.33.947 4.828 2.367 8.283 4.26 10.366h-19.028c-1.325-2.177-2.13-4.591-2.414-7.242a107.927 107.927 0 0 1-.284-7.668c0-4.639-.284-8.615-.852-11.928-.568-3.408-1.609-6.201-3.124-8.378-1.515-2.272-3.597-3.929-6.248-4.97-2.556-1.041-5.869-1.562-9.94-1.562h-26.128V142h-17.75V40.612Zm17.75 46.15h29.11c5.68 0 9.987-1.325 12.922-3.976 2.935-2.745 4.402-6.816 4.402-12.212 0-3.219-.473-5.822-1.42-7.81-.947-2.083-2.272-3.692-3.976-4.828-1.609-1.136-3.503-1.893-5.68-2.272a36.465 36.465 0 0 0-6.532-.568h-28.826v31.666Zm70.08-46.15h82.076v15.336h-32.234V142h-17.75V55.948h-32.092V40.612Zm93.83 0h17.75V142h-17.75V40.612Zm38.812 0h18.744l46.292 74.692h.284V40.612h16.898V142h-18.744l-46.15-74.55h-.426V142h-16.898V40.612Zm130.31 0h18.886L781.137 142h-19.028l-9.514-26.838h-40.47L702.611 142h-18.318l38.908-101.388Zm-6.248 61.06h30.956l-15.194-43.594h-.426l-15.336 43.594ZM0 38h103.371v103.615H0z" fill="currentColor"/><ellipse cx="89.589" cy="115.519" rx="44.411" ry="44.516" fill="#143AFF"/><ellipse cx="89.589" cy="115.519" rx="44.411" ry="44.516" fill="var(--color-typo-accent)"/></svg>
