<?xml version="1.0" standalone="no"?>
<!DOCTYPE svg PUBLIC "-//W3C//DTD SVG 20010904//EN"
 "http://www.w3.org/TR/2001/REC-SVG-20010904/DTD/svg10.dtd">
<svg version="1.0" xmlns="http://www.w3.org/2000/svg"
 width="512.000000pt" height="512.000000pt" viewBox="0 0 512.000000 512.000000"
 preserveAspectRatio="xMidYMid meet">
<metadata>
Created by potrace 1.14, written by Peter Selinger 2001-2017
</metadata>
<g transform="translate(0.000000,512.000000) scale(0.100000,-0.100000)"
fill="#000000" stroke="none">
<path d="M0 2910 l0 -1980 1024 0 1023 0 45 -58 c231 -292 549 -497 928 -597
51 -13 154 -31 238 -40 47 -6 238 -6 322 -1 148 10 392 75 548 147 73 33 248
133 262 148 3 3 39 32 81 63 74 56 229 209 279 276 14 19 30 39 35 45 9 10 69
102 112 172 53 85 165 370 179 454 2 14 9 49 15 76 18 88 24 167 24 315 0 128
-10 274 -20 290 -2 3 -6 21 -9 40 -12 72 -17 94 -27 112 -5 10 -8 18 -5 18 11
0 -58 182 -105 279 -44 90 -149 266 -168 281 -3 3 -32 38 -65 77 -69 87 -194
202 -308 286 -92 67 -286 171 -390 208 l-68 24 0 672 0 673 -1975 0 -1975 0 0
-1980z"/>
</g>
</svg>
