<svg width="23" height="23" viewBox="0 0 23 23" fill="none" xmlns="http://www.w3.org/2000/svg">
<path d="M11.5 23C17.8513 23 23 17.8513 23 11.5C23 5.14873 17.8513 0 11.5 0C5.14873 0 0 5.14873 0 11.5C0 17.8513 5.14873 23 11.5 23Z" fill="#00EF8B"/>
<path d="M16.536 9.70605H13.293V12.9491H16.536V9.70605Z" fill="white"/>
<path d="M10.0521 14.1681C10.0521 14.8351 9.5001 15.3871 8.8331 15.3871C8.1661 15.3871 7.61409 14.8351 7.61409 14.1681C7.61409 13.5011 8.1661 12.9491 8.8331 12.9491H10.0521V9.70605H8.8331C6.37209 9.70605 4.37109 11.7071 4.37109 14.1681C4.37109 16.6291 6.37209 18.6301 8.8331 18.6301C11.2941 18.6301 13.2951 16.6291 13.2951 14.1681V12.9491H10.0521V14.1681Z" fill="white"/>
<path d="M14.5128 8.07308H18.1698V4.83008H14.5128C12.0518 4.83008 10.0508 6.83108 10.0508 9.29208V9.70608H13.2938V9.29208C13.2938 8.62508 13.8458 8.07308 14.5128 8.07308Z" fill="white"/>
<path d="M13.2938 9.70605H10.0508V12.9491H13.2938V9.70605Z" fill="#16FF99"/>
</svg>
