<svg width="218" height="44" viewBox="0 0 218 44" fill="none" xmlns="http://www.w3.org/2000/svg">
<rect y="5.11621" width="27.7702" height="28.6701" fill="var(--color-typo-primary)"/>
<ellipse cx="24.0676" cy="26.5661" rx="11.9309" ry="12.3175" fill="var(--color-typo-accent)"/>
<path d="M56.5696 7.868H61.3196V20.218L73.4036 7.868H79.2556L68.4256 18.698L80.0156 35H74.0876L65.1956 22.042L61.3196 25.88V35H56.5696V7.868ZM89.8413 7.868H94.8953L105.345 35H100.253L97.7073 27.818H86.8773L84.3313 35H79.4293L89.8413 7.868ZM88.1693 24.208H96.4533L92.3873 12.542H92.2733L88.1693 24.208ZM107.929 7.868H120.887C123.876 7.868 126.118 8.514 127.613 9.806C129.108 11.098 129.855 12.8967 129.855 15.202C129.855 16.494 129.665 17.5707 129.285 18.432C128.905 19.268 128.462 19.952 127.955 20.484C127.448 20.9907 126.942 21.358 126.435 21.586C125.954 21.814 125.599 21.966 125.371 22.042V22.118C125.776 22.1687 126.207 22.2953 126.663 22.498C127.144 22.7007 127.588 23.03 127.993 23.486C128.398 23.9167 128.728 24.4867 128.981 25.196C129.26 25.9053 129.399 26.792 129.399 27.856C129.399 29.452 129.513 30.9087 129.741 32.226C129.994 33.518 130.374 34.4427 130.881 35H125.789C125.434 34.4173 125.219 33.7713 125.143 33.062C125.092 32.3527 125.067 31.6687 125.067 31.01C125.067 29.7687 124.991 28.7047 124.839 27.818C124.687 26.906 124.408 26.1587 124.003 25.576C123.598 24.968 123.04 24.5247 122.331 24.246C121.647 23.9673 120.76 23.828 119.671 23.828H112.679V35H107.929V7.868ZM112.679 20.218H120.469C121.989 20.218 123.142 19.8633 123.927 19.154C124.712 18.4193 125.105 17.33 125.105 15.886C125.105 15.0247 124.978 14.328 124.725 13.796C124.472 13.2387 124.117 12.808 123.661 12.504C123.23 12.2 122.724 11.9973 122.141 11.896C121.584 11.7947 121.001 11.744 120.393 11.744H112.679V20.218ZM131.433 7.868H153.397V11.972H144.771V35H140.021V11.972H131.433V7.868ZM156.542 7.868H161.292V35H156.542V7.868ZM166.928 7.868H171.944L184.332 27.856H184.408V7.868H188.93V35H183.914L171.564 15.05H171.45V35H166.928V7.868ZM201.8 7.868H206.854L217.304 35H212.212L209.666 27.818H198.836L196.29 35H191.388L201.8 7.868ZM200.128 24.208H208.412L204.346 12.542H204.232L200.128 24.208Z" fill="currentColor"/>
</svg>
